[Header]
FileType HTR
DataType HTRS
FileVersion 1
NumSegments 64
NumFrames 3
DataFrameRate 24
EulerRotationOrder ZYX
CalibrationUnits mm
RotationUnits Degrees
GlobalAxisofGravity Y
BoneLengthAxis Y
ScaleFactor 1.0
[SegmentNames&Hierarchy]
Hips	GLOBAL
Spine	Hips
Spine1	Spine
Spine2	Spine1
Neck	Spine2
Head	Neck
LeftEye	Head
RightEye	Head
LeftShoulder	Spine2
LeftArm	LeftShoulder
LeftForeArm	LeftArm
LeftHand	LeftForeArm
LeftHandThumb1	LeftHand
LeftHandThumb2	LeftHandThumb1
LeftHandThumb3	LeftHandThumb2
LeftHandThumb4	LeftHandThumb3
LeftHandIndex1	LeftHand
LeftHandIndex2	LeftHandIndex1
LeftHandIndex3	LeftHandIndex2
LeftHandIndex4	LeftHandIndex3
LeftHandMiddle1	LeftHand
LeftHandMiddle2	LeftHandMiddle1
LeftHandMiddle3	LeftHandMiddle2
LeftHandMiddle4	LeftHandMiddle3
LeftHandRing1	LeftHand
LeftHandRing2	LeftHandRing1
LeftHandRing3	LeftHandRing2
LeftHandRing4	LeftHandRing3
LeftHandPinky1	LeftHand
LeftHandPinky2	LeftHandPinky1
LeftHandPinky3	LeftHandPinky2
LeftHandPinky4	LeftHandPinky3
RightShoulder	Spine2
RightArm	RightShoulder
RightForeArm	RightArm
RightHand	RightForeArm
RightHandPinky1	RightHand
RightHandPinky2	RightHandPinky1
RightHandPinky3	RightHandPinky2
RightHandPinky4	RightHandPinky3
RightHandRing1	RightHand
RightHandRing2	RightHandRing1
RightHandRing3	RightHandRing2
RightHandRing4	RightHandRing3
RightHandMiddle1	RightHand
RightHandMiddle2	RightHandMiddle1
RightHandMiddle3	RightHandMiddle2
RightHandMiddle4	RightHandMiddle3
RightHandIndex1	RightHand
RightHandIndex2	RightHandIndex1
RightHandIndex3	RightHandIndex2
RightHandIndex4	RightHandIndex3
RightHandThumb1	RightHand
RightHandThumb2	RightHandThumb1
RightHandThumb3	RightHandThumb2
RightHandThumb4	RightHandThumb3
LeftUpLeg	Hips
LeftLeg	LeftUpLeg
LeftFoot	LeftLeg
LeftToeBase	LeftFoot
RightUpLeg	Hips
RightLeg	RightUpLeg
RightFoot	RightLeg
RightToeBase	RightFoot
[BasePosition]
Hips	0	0	0	0	0	0	1
Spine	0	0	0	0	0	0	1
Spine1	0	0	0	0	0	0	1
Spine2	0	0	0	0	0	0	1
Neck	0	0	0	0	0	0	1
Head	0	0	0	0	0	0	1
LeftEye	0	0	0	0	0	0	1
RightEye	0	0	0	0	0	0	1
LeftShoulder	0	0	0	0	0	0	1
LeftArm	0	0	0	0	0	0	1
LeftForeArm	0	0	0	0	0	0	1
LeftHand	0	0	0	0	0	0	1
LeftHandThumb1	0	0	0	0	0	0	1
LeftHandThumb2	0	0	0	0	0	0	1
LeftHandThumb3	0	0	0	0	0	0	1
LeftHandThumb4	0	0	0	0	0	0	1
LeftHandIndex1	0	0	0	0	0	0	1
LeftHandIndex2	0	0	0	0	0	0	1
LeftHandIndex3	0	0	0	0	0	0	1
LeftHandIndex4	0	0	0	0	0	0	1
LeftHandMiddle1	0	0	0	0	0	0	1
LeftHandMiddle2	0	0	0	0	0	0	1
LeftHandMiddle3	0	0	0	0	0	0	1
LeftHandMiddle4	0	0	0	0	0	0	1
LeftHandRing1	0	0	0	0	0	0	1
LeftHandRing2	0	0	0	0	0	0	1
LeftHandRing3	0	0	0	0	0	0	1
LeftHandRing4	0	0	0	0	0	0	1
LeftHandPinky1	0	0	0	0	0	0	1
LeftHandPinky2	0	0	0	0	0	0	1
LeftHandPinky3	0	0	0	0	0	0	1
LeftHandPinky4	0	0	0	0	0	0	1
RightShoulder	0	0	0	0	0	0	1
RightArm	0	0	0	0	0	0	1
RightForeArm	0	0	0	0	0	0	1
RightHand	0	0	0	0	0	0	1
RightHandPinky1	0	0	0	0	0	0	1
RightHandPinky2	0	0	0	0	0	0	1
RightHandPinky3	0	0	0	0	0	0	1
RightHandPinky4	0	0	0	0	0	0	1
RightHandRing1	0	0	0	0	0	0	1
RightHandRing2	0	0	0	0	0	0	1
RightHandRing3	0	0	0	0	0	0	1
RightHandRing4	0	0	0	0	0	0	1
RightHandMiddle1	0	0	0	0	0	0	1
RightHandMiddle2	0	0	0	0	0	0	1
RightHandMiddle3	0	0	0	0	0	0	1
RightHandMiddle4	0	0	0	0	0	0	1
RightHandIndex1	0	0	0	0	0	0	1
RightHandIndex2	0	0	0	0	0	0	1
RightHandIndex3	0	0	0	0	0	0	1
RightHandIndex4	0	0	0	0	0	0	1
RightHandThumb1	0	0	0	0	0	0	1
RightHandThumb2	0	0	0	0	0	0	1
RightHandThumb3	0	0	0	0	0	0	1
RightHandThumb4	0	0	0	0	0	0	1
LeftUpLeg	0	0	0	0	0	0	1
LeftLeg	0	0	0	0	0	0	1
LeftFoot	0	0	0	0	0	0	1
LeftToeBase	0	0	0	0	0	0	1
RightUpLeg	0	0	0	0	0	0	1
RightLeg	0	0	0	0	0	0	1
RightFoot	0	0	0	0	0	0	1
RightToeBase	0	0	0	0	0	0	1
[Hips]
3	142.9508362	1009.343567	16.28659439	5.111691952	65.27180481	-3.187482357	1.0
4	209.364563	1002.644409	18.85468864	3.199329615	64.1374588	-5.603604317	1.0
5	284.1967773	982.5869141	19.82051468	-1.097808003	61.76028061	-10.17251396	1.0
[Spine]
3	0	101.8159943	1.315000057	5.73685503	-5.773301125	0.08714412153	1.0
4	0	101.8159943	1.315000057	5.537037373	-4.279299736	1.107201457	1.0
5	0	101.8159943	1.315000057	5.346153736	-2.254966736	3.142943144	1.0
[Spine1]
3	0	100.8349991	-10.00800037	4.107496262	-4.477564812	0.4169588983	1.0
4	0	100.8349991	-10.00800037	3.939782858	-4.148377895	0.5098693967	1.0
5	0	100.8349991	-10.00800037	3.664073706	-3.583755255	1.060405731	1.0
[Spine2]
3	0	91	-13.73399925	4.091282845	-4.49640274	0.3943160474	1.0
4	0	91	-13.73399925	3.940138102	-4.148849964	0.4885515869	1.0
5	0	91	-13.73399925	3.686402082	-3.55561924	1.055093765	1.0
[Neck]
3	0	166.7169952	-25.16200066	4.427896023	-6.048689842	-1.1005373	1.0
4	0	166.7169952	-25.16200066	4.041865826	-6.105676174	-1.31601727	1.0
5	0	166.7169952	-25.16200066	3.883189917	-6.173043251	-1.523726702	1.0
[Head]
3	0	96.17900085	16.84999847	-12.41978645	-34.56136703	12.5876646	1.0
4	0	96.17900085	16.84999847	-13.4432478	-34.77832413	13.27994156	1.0
5	0	96.17900085	16.84999847	-14.66623974	-34.85023117	13.81233311	1.0
[LeftEye]
3	30.6760006	64.09500122	92.83599854	0	0	0	1.0
4	30.6760006	64.09500122	92.83599854	0	0	0	1.0
5	30.6760006	64.09500122	92.83599854	0	0	0	1.0
[RightEye]
3	-30.6760006	64.09500122	92.83499908	0	0	0	1.0
4	-30.6760006	64.09500122	92.83499908	0	0	0	1.0
5	-30.6760006	64.09500122	92.83499908	0	0	0	1.0
[LeftShoulder]
3	45.70400238	109.4599991	-26.28000069	2.133161306	-6.497506142	-9.956933022	1.0
4	45.70400238	109.4599991	-26.28000069	2.25194478	-5.727470875	-9.980649948	1.0
5	45.70400238	109.4599991	-26.28000069	2.35243392	-4.896717548	-9.932789803	1.0
[LeftArm]
3	105.923996	-5.24600029	-22.32099915	29.64024925	-14.16429901	-55.49186707	1.0
4	105.923996	-5.24600029	-22.32099915	28.15743256	-8.850732803	-54.90102386	1.0
5	105.923996	-5.24600029	-22.32099915	26.64394379	-4.782321453	-56.0124588	1.0
[LeftForeArm]
3	278.414978	-0.0009999999311	0	-4.547077879e-06	-20.07263947	-0.0001850497938	1.0
4	278.414978	-0.0009999999311	0	3.182105388e-07	-23.01761246	-0.0001994739141	1.0
5	278.414978	-0.0009999999311	0	1.071421593e-05	-23.5815773	-0.0002232771367	1.0
[LeftHand]
3	283.2879944	0	0	-3.751609325	-3.363679647	4.014842987	1.0
4	283.2879944	0	0	-5.031196117	-3.460226536	3.709176064	1.0
5	283.2879944	0	0	-4.345822811	-3.317085505	3.306497335	1.0
[LeftHandThumb1]
3	24.6609993	-15.75	26.8239994	0.9464570284	1.151123047	0.2541034818	1.0
4	24.6609993	-15.75	26.8239994	0.9464570284	1.151123047	0.2541034818	1.0
5	24.6609993	-15.75	26.8239994	0.9464570284	1.151123047	0.2541034818	1.0
[LeftHandThumb2]
3	32.29800034	-18.64699936	18.64699936	13.70227718	1.657651186	18.34066391	1.0
4	32.29800034	-18.64699936	18.64699936	14.62655735	0.9799956083	17.89321518	1.0
5	32.29800034	-18.64699936	18.64699936	15.91164112	0.3101863265	17.10770798	1.0
[LeftHandThumb3]
3	26.52600098	-15.31499958	15.31499958	-2.524691343	-11.73535538	22.01527023	1.0
4	26.52600098	-15.31499958	15.31499958	-2.65708971	-12.07363605	22.03158188	1.0
5	26.52600098	-15.31499958	15.31499958	-3.022382975	-12.99178505	22.14872169	1.0
[LeftHandThumb4]
3	19.54599953	-11.28499985	11.28499985	0	0	0	1.0
4	19.54599953	-11.28499985	11.28499985	0	0	0	1.0
5	19.54599953	-11.28499985	11.28499985	0	0	0	1.0
[LeftHandIndex1]
3	91.09299469	-5.170999527	22.60099792	-1.451291323	-1.559137225	-24.85568619	1.0
4	91.09299469	-5.170999527	22.60099792	-1.472776771	-1.358691454	-25.1425705	1.0
5	91.09299469	-5.170999527	22.60099792	-1.52926755	-0.7005330324	-26.26098824	1.0
[LeftHandIndex2]
3	36.76399994	0	0	-0.1279889643	1.216413975	-12.01278114	1.0
4	36.76399994	0	0	-0.1284152418	1.21841228	-12.03280735	1.0
5	36.76399994	0	0	-0.1287683547	1.220064044	-12.04939079	1.0
[LeftHandIndex3]
3	28.83100128	0	0	-0.1331762671	1.240513444	-12.25452423	1.0
4	28.83100128	0	0	-0.1336120218	1.242521763	-12.27466965	1.0
5	28.83100128	0	0	-0.1339748949	1.24418366	-12.29134178	1.0
[LeftHandIndex4]
3	23.92700005	0	0	0	0	0	1.0
4	23.92700005	0	0	0	0	0	1.0
5	23.92700005	0	0	0	0	0	1.0
[LeftHandMiddle1]
3	95.33399963	0	0	-2.010278702	3.17552948	-31.22883987	1.0
4	95.33399963	0	0	-2.020754337	3.417578697	-31.34146118	1.0
5	95.33399963	0	0	-2.073040009	3.820069075	-31.92253304	1.0
[LeftHandMiddle2]
3	36.98199844	0	0	-0.3006671667	1.850172043	-18.45919609	1.0
4	36.98199844	0	0	-0.3009954691	1.851155996	-18.46936989	1.0
5	36.98199844	0	0	-0.3018353581	1.853649974	-18.49518394	1.0
[LeftHandMiddle3]
3	29.50900078	0	0	-0.1077178419	1.116909266	-11.01700878	1.0
4	29.50900078	0	0	-0.1079183966	1.117935181	-11.02725983	1.0
5	29.50900078	0	0	-0.1084203869	1.120522976	-11.05312443	1.0
[LeftHandMiddle4]
3	28.3390007	0	0	0	0	0	1.0
4	28.3390007	0	0	0	0	0	1.0
5	28.3390007	0	0	0	0	0	1.0
[LeftHandRing1]
3	91.04499817	-0.4390000105	-18.65100098	-2.133191109	7.211929321	-32.60955811	1.0
4	91.04499817	-0.4390000105	-18.65100098	-2.150633097	7.298435211	-32.80445862	1.0
5	91.04499817	-0.4390000105	-18.65100098	-2.217152119	7.424321175	-33.54011154	1.0
[LeftHandRing2]
3	31.54000092	0	0	-0.4758431017	2.309297562	-23.28336334	1.0
4	31.54000092	0	0	-0.4736818075	2.304269552	-23.22962379	1.0
5	31.54000092	0	0	-0.4697731137	2.295140266	-23.13216019	1.0
[LeftHandRing3]
3	29.37700081	0	0	-0.343054086	1.972543597	-19.72994232	1.0
4	29.37700081	0	0	-0.3411722481	1.967290998	-19.67519188	1.0
5	29.37700081	0	0	-0.3377811313	1.957793713	-19.57623863	1.0
[LeftHandRing4]
3	26.47500038	0	0	0	0	0	1.0
4	26.47500038	0	0	0	0	0	1.0
5	26.47500038	0	0	0	0	0	1.0
[LeftHandPinky1]
3	80.77799988	-4.887000084	-38.06099701	-2.475631237	4.897941113	-36.28001404	1.0
4	80.77799988	-4.887000084	-38.06099701	-2.481146336	4.816628933	-36.33893967	1.0
5	80.77799988	-4.887000084	-38.06099701	-2.516163588	4.631625652	-36.71240997	1.0
[LeftHandPinky2]
3	36	0	0	-0.5080545545	2.382696152	-24.07024765	1.0
4	36	0	0	-0.5037596822	2.373069525	-23.96675873	1.0
5	36	0	0	-0.4959977865	2.355547428	-23.77860641	1.0
[LeftHandPinky3]
3	21.14200211	0	0	-0.2245334387	1.604272366	-15.9336319	1.0
4	21.14200211	0	0	-0.2215364873	1.593744755	-15.82625866	1.0
5	21.14200211	0	0	-0.2161453515	1.574611783	-15.63125801	1.0
[LeftHandPinky4]
3	19.75699997	0	0	0	0	0	1.0
4	19.75699997	0	0	0	0	0	1.0
5	19.75699997	0	0	0	0	0	1.0
[RightShoulder]
3	-45.70000076	109.4620056	-26.28000069	0.1604464352	0.3062514365	9.391819	1.0
4	-45.70000076	109.4620056	-26.28000069	0.07247623801	1.431624174	9.240799904	1.0
5	-45.70000076	109.4620056	-26.28000069	0.0590627864	2.95527482	9.36104393	1.0
[RightArm]
3	-105.9280014	-5.248000145	-22.32099915	17.7051506	9.983318329	65.73532867	1.0
4	-105.9280014	-5.248000145	-22.32099915	17.50887489	11.29362106	65.06723022	1.0
5	-105.9280014	-5.248000145	-22.32099915	16.58156013	12.42006207	63.53521729	1.0
[RightForeArm]
3	-278.414978	0	0	-2.452063654e-06	16.88455963	-8.158422133e-06	1.0
4	-278.414978	0	0	-4.862401056e-06	19.97067833	-3.670005981e-06	1.0
5	-278.414978	0	0	-5.628423878e-06	22.73368645	1.859872214e-06	1.0
[RightHand]
3	-283.2879944	0	0.0009999999311	7.067773819	8.1261549	4.559143066	1.0
4	-283.2879944	0	0.0009999999311	7.873377323	8.592385292	4.670600414	1.0
5	-283.2879944	0	0.0009999999311	7.749461651	8.992992401	4.222676754	1.0
[RightHandPinky1]
3	-80.76699829	-4.885000229	-38.06000137	-1.731030226	-1.657655716	29.99664116	1.0
4	-80.76699829	-4.885000229	-38.06000137	-1.771446228	-0.7065678835	30.56459999	1.0
5	-80.76699829	-4.885000229	-38.06000137	-1.784515977	-0.04541451856	30.76899719	1.0
[RightHandPinky2]
3	-36	0	0.0009999999311	-0.3751434684	-1.82746172	23.21878242	1.0
4	-36	0	0.0009999999311	-0.3808514178	-1.840725899	23.39728546	1.0
5	-36	0	0.0009999999311	-0.3905086517	-1.862919092	23.69647408	1.0
[RightHandPinky3]
3	-21.14200211	0	0	-0.4307482541	-1.952035189	24.88527679	1.0
4	-21.14200211	0	0	-0.4363922775	-1.964153767	25.05057144	1.0
5	-21.14200211	0	0	-0.4460346103	-1.984620214	25.33039093	1.0
[RightHandPinky4]
3	-19.75699997	0	0	0	0	0	1.0
4	-19.75699997	0	0	0	0	0	1.0
5	-19.75699997	0	0	0	0	0	1.0
[RightHandRing1]
3	-91.03599548	-0.4390000105	-18.65100098	-2.006415606	-2.410749912	33.75641632	1.0
4	-91.03599548	-0.4390000105	-18.65100098	-2.098459721	-2.086242437	34.9333992	1.0
5	-91.03599548	-0.4390000105	-18.65100098	-2.202934027	-1.631335735	36.2571907	1.0
[RightHandRing2]
3	-31.54000092	0	0	-0.7038788795	-2.456144333	31.97803497	1.0
4	-31.54000092	0	0	-0.6987602711	-2.44793129	31.85831261	1.0
5	-31.54000092	0	0	-0.6906722188	-2.434862375	31.66830254	1.0
[RightHandRing3]
3	-29.37700081	0	0	-0.7820329666	-2.576987505	33.75789642	1.0
4	-29.37700081	0	0	-0.7765491605	-2.568789244	33.63592529	1.0
5	-29.37700081	0	0	-0.7678906918	-2.55572319	33.44207001	1.0
[RightHandRing4]
3	-26.47500038	0	0	0	0	0	1.0
4	-26.47500038	0	0	0	0	0	1.0
5	-26.47500038	0	0	0	0	0	1.0
[RightHandMiddle1]
3	-95.32500458	0	0	-2.285780191	-1.083231091	37.2975769	1.0
4	-95.32500458	0	0	-2.366294622	-1.204223394	38.28543091	1.0
5	-95.32500458	0	0	-2.436158419	-1.398418546	39.13046646	1.0
[RightHandMiddle2]
3	-36.98199844	0	0	-0.4395392537	-1.970859766	25.14215469	1.0
4	-36.98199844	0	0	-0.4433015883	-1.978865266	25.25152779	1.0
5	-36.98199844	0	0	-0.4475222826	-1.987806678	25.37371826	1.0
[RightHandMiddle3]
3	-29.50900078	0	0	-0.3064386845	-1.66009903	20.94035339	1.0
4	-29.50900078	0	0	-0.3096499145	-1.668449879	21.05097389	1.0
5	-29.50900078	0	0	-0.3132485151	-1.677786112	21.17463875	1.0
[RightHandMiddle4]
3	-28.3390007	0	0.0009999999311	0	0	0	1.0
4	-28.3390007	0	0.0009999999311	0	0	0	1.0
5	-28.3390007	0	0.0009999999311	0	0	0	1.0
[RightHandIndex1]
3	-91.08300018	-5.167999744	22.60099792	-1.250321746	6.748336792	24.49207306	1.0
4	-91.08300018	-5.167999744	22.60099792	-1.427808166	6.585909843	27.02049255	1.0
5	-91.08300018	-5.167999744	22.60099792	-1.633657575	6.335089207	29.882658	1.0
[RightHandIndex2]
3	-36.76399994	0	0	-0.5731691122	-2.233377934	28.78413773	1.0
4	-36.76399994	0	0	-0.5721601248	-2.231541395	28.75821495	1.0
5	-36.76399994	0	0	-0.5679710507	-2.223895311	28.65041733	1.0
[RightHandIndex3]
3	-28.83100128	0	0	-0.236594528	-1.462641001	18.37597466	1.0
4	-28.83100128	0	0	-0.2359288782	-1.460629702	18.34979057	1.0
5	-28.83100128	0	0	-0.2331535369	-1.452262521	18.24092293	1.0
[RightHandIndex4]
3	-23.92700005	0	0	0	0	0	1.0
4	-23.92700005	0	0	0	0	0	1.0
5	-23.92700005	0	0	0	0	0	1.0
[RightHandThumb1]
3	-24.64799881	-15.72700024	26.82600021	30.15343666	21.14214134	-10.25145817	1.0
4	-24.64799881	-15.72700024	26.82600021	30.15343666	21.14214134	-10.25145817	1.0
5	-24.64799881	-15.72700024	26.82600021	30.15343666	21.14214134	-10.25145817	1.0
[RightHandThumb2]
3	-32.29800034	-18.64699936	18.64699936	11.62499523	-22.06297684	1.196600556	1.0
4	-32.29800034	-18.64699936	18.64699936	12.94197273	-21.53262901	1.778000355	1.0
5	-32.29800034	-18.64699936	18.64699936	14.22145176	-21.10426331	2.480570793	1.0
[RightHandThumb3]
3	-26.52600098	-15.31399918	15.31399918	-11.89350319	-13.56567478	-10.35895729	1.0
4	-26.52600098	-15.31399918	15.31399918	-11.94912624	-13.43707848	-10.39445591	1.0
5	-26.52600098	-15.31399918	15.31399918	-12.01137352	-13.28443241	-10.43671799	1.0
[RightHandThumb4]
3	-19.54599953	-11.28499985	11.28499985	0	0	0	1.0
4	-19.54599953	-11.28499985	11.28499985	0	0	0	1.0
5	-19.54599953	-11.28499985	11.28499985	0	0	0	1.0
[LeftUpLeg]
3	82.07800293	-67.51699829	-15.99599934	-36.0217514	12.36908531	3.21421957	1.0
4	82.07800293	-67.51699829	-15.99599934	-36.15002823	12.06722641	7.39921236	1.0
5	82.07800293	-67.51699829	-15.99599934	-39.3247261	14.21877575	12.45436192	1.0
[LeftLeg]
3	0	-443.7049866	2.845999956	30.75246811	-0.8765845299	-0.554361701	1.0
4	0	-443.7049866	2.845999956	13.83404446	-0.9251615405	-0.2202280015	1.0
5	0	-443.7049866	2.845999956	7.795209885	1.091991425	0.2007471174	1.0
[LeftFoot]
3	0	-444.2789917	-29.8219986	-4.331009388	0.0226541888	-5.846176147	1.0
4	0	-444.2789917	-29.8219986	-4.918126583	-0.07487801462	-9.343564034	1.0
5	0	-444.2789917	-29.8219986	-9.6323452	-0.7676536441	-7.09060955	1.0
[LeftToeBase]
3	0	-87.28699493	107.1060028	-5.311959743	-3.205570101e-05	-8.372120647e-06	1.0
4	0	-87.28699493	107.1060028	-3.637282848	-3.341459887e-05	-1.089862326e-05	1.0
5	0	-87.28699493	107.1060028	-7.115300655	2.558212145e-05	5.969896392e-06	1.0
[RightUpLeg]
3	-82.07800293	-67.51699829	-15.99599934	-15.96509075	-1.886688113	-1.788737059	1.0
4	-82.07800293	-67.51699829	-15.99599934	-11.50504303	-2.246132612	-2.569628239	1.0
5	-82.07800293	-67.51699829	-15.99599934	-7.201710224	-2.39748764	-2.94683075	1.0
[RightLeg]
3	0	-443.7049866	2.861999989	22.57650185	6.683492661	2.831685066	1.0
4	0	-443.7049866	2.861999989	20.96952057	7.678744316	3.028083563	1.0
5	0	-443.7049866	2.861999989	21.37327766	9.301254272	3.722764492	1.0
[RightFoot]
3	0	-444.2770081	-29.83799934	-14.68454742	1.612893343	1.080457926	1.0
4	0	-444.2770081	-29.83799934	-17.93526268	2.466966391	2.054430962	1.0
5	0	-444.2770081	-29.83799934	-22.51393318	3.91480422	2.917749166	1.0
[RightToeBase]
3	0	-87.28699493	107.1060028	-6.010780334	-1.035000059e-05	1.817891302e-06	1.0
4	0	-87.28699493	107.1060028	-6.010778427	4.302105026e-06	2.827720891e-06	1.0
5	0	-87.28699493	107.1060028	-6.010786533	1.990049714e-05	1.661717533e-06	1.0
[EndOfFile]
